# Tiled2Unity generated file. Do not modify by hand.
# Wavefront file for 'Test2_mesh_0005.obj'

# Vertices (Count = 88)
v -976 -176 0
v -992 -176 0
v -992 -160 0
v -976 -160 0
v -992 -176 0
v -1008 -176 0
v -1008 -160 0
v -992 -160 0
v -1408 -176 0
v -1424 -176 0
v -1424 -160 0
v -1408 -160 0
v -1424 -176 0
v -1440 -176 0
v -1440 -160 0
v -1424 -160 0
v -976 -192 0
v -992 -192 0
v -992 -176 0
v -976 -176 0
v -992 -192 0
v -1008 -192 0
v -1008 -176 0
v -992 -176 0
v -1408 -192 0
v -1424 -192 0
v -1424 -176 0
v -1408 -176 0
v -1424 -192 0
v -1440 -192 0
v -1440 -176 0
v -1424 -176 0
v -1408 -208 0
v -1424 -208 0
v -1424 -192 0
v -1408 -192 0
v -1424 -208 0
v -1440 -208 0
v -1440 -192 0
v -1424 -192 0
v -1408 -224 0
v -1424 -224 0
v -1424 -208 0
v -1408 -208 0
v -1424 -224 0
v -1440 -224 0
v -1440 -208 0
v -1424 -208 0
v -1408 -240 0
v -1424 -240 0
v -1424 -224 0
v -1408 -224 0
v -1424 -240 0
v -1440 -240 0
v -1440 -224 0
v -1424 -224 0
v -1408 -256 0
v -1424 -256 0
v -1424 -240 0
v -1408 -240 0
v -1424 -256 0
v -1440 -256 0
v -1440 -240 0
v -1424 -240 0
v -1488 -1584 0
v -1504 -1584 0
v -1504 -1568 0
v -1488 -1568 0
v -1504 -1584 0
v -1520 -1584 0
v -1520 -1568 0
v -1504 -1568 0
v -1568 -1584 0
v -1584 -1584 0
v -1584 -1568 0
v -1568 -1568 0
v -1584 -1584 0
v -1600 -1584 0
v -1600 -1568 0
v -1584 -1568 0
v -1488 -1600 0
v -1504 -1600 0
v -1504 -1584 0
v -1488 -1584 0
v -1504 -1600 0
v -1520 -1600 0
v -1520 -1584 0
v -1504 -1584 0

# Texture cooridinates (Count = 35)
vt 0.5625 0.96875
vt 0.59375 0.96875
vt 0.59375 1
vt 0.5625 1
vt 0.625 0.96875
vt 0.625 1
vt 0.375 0.71875
vt 0.40625 0.71875
vt 0.40625 0.75
vt 0.375 0.75
vt 0.4375 0.71875
vt 0.4375 0.75
vt 0.5625 0.9375
vt 0.59375 0.9375
vt 0.625 0.9375
vt 0.375 0.6875
vt 0.40625 0.6875
vt 0.4375 0.6875
vt 0.625 0.65625
vt 0.65625 0.65625
vt 0.65625 0.6875
vt 0.625 0.6875
vt 0.6875 0.65625
vt 0.6875 0.6875
vt 0.90625 0.65625
vt 0.9375 0.65625
vt 0.9375 0.6875
vt 0.90625 0.6875
vt 0.8125 0.65625
vt 0.84375 0.65625
vt 0.84375 0.6875
vt 0.8125 0.6875
vt 0.625 0.625
vt 0.65625 0.625
vt 0.6875 0.625

# Normal
vn 0 0 -1

# Mesh description
g Test2_mesh_0005

# Faces
f 1/1/1 2/2/1 3/3/1 4/4/1
f 5/2/1 6/5/1 7/6/1 8/3/1
f 9/7/1 10/8/1 11/9/1 12/10/1
f 13/8/1 14/11/1 15/12/1 16/9/1
f 17/13/1 18/14/1 19/2/1 20/1/1
f 21/14/1 22/15/1 23/5/1 24/2/1
f 25/16/1 26/17/1 27/8/1 28/7/1
f 29/17/1 30/18/1 31/11/1 32/8/1
f 33/7/1 34/8/1 35/9/1 36/10/1
f 37/8/1 38/11/1 39/12/1 40/9/1
f 41/16/1 42/17/1 43/8/1 44/7/1
f 45/17/1 46/18/1 47/11/1 48/8/1
f 49/7/1 50/8/1 51/9/1 52/10/1
f 53/8/1 54/11/1 55/12/1 56/9/1
f 57/16/1 58/17/1 59/8/1 60/7/1
f 61/17/1 62/18/1 63/11/1 64/8/1
f 65/19/1 66/20/1 67/21/1 68/22/1
f 69/20/1 70/23/1 71/24/1 72/21/1
f 73/25/1 74/26/1 75/27/1 76/28/1
f 77/29/1 78/30/1 79/31/1 80/32/1
f 81/33/1 82/34/1 83/20/1 84/19/1
f 85/34/1 86/35/1 87/23/1 88/20/1

